<mxfile host="app.diagrams.net" modified="2020-05-25T17:30:38.678Z" agent="5.0 (Windows NT 10.0; Win64; x64) AppleWebKit/537.36 (KHTML, like Gecko) Chrome/78.0.3904.97 Safari/537.36" etag="6r6PE13mxAhCmlDn3YHm" version="13.1.3" type="github">
  <diagram id="8td7YuofsSNAn1QMjyVu" name="Page-1">
    <mxGraphModel dx="1408" dy="748" grid="1" gridSize="10" guides="1" tooltips="1" connect="1" arrows="1" fold="1" page="1" pageScale="1" pageWidth="850" pageHeight="1100" math="0" shadow="0">
      <root>
        <mxCell id="0" />
        <mxCell id="1" parent="0" />
        <mxCell id="3KRZKQe5Rs8XC9uwf4vS-1" value="" style="rounded=0;whiteSpace=wrap;html=1;" vertex="1" parent="1">
          <mxGeometry x="40" y="40" width="370" height="1180" as="geometry" />
        </mxCell>
        <mxCell id="3KRZKQe5Rs8XC9uwf4vS-2" value="" style="rounded=0;whiteSpace=wrap;html=1;" vertex="1" parent="1">
          <mxGeometry x="40" y="40" width="370" height="40" as="geometry" />
        </mxCell>
        <mxCell id="3KRZKQe5Rs8XC9uwf4vS-3" value="Modern Mobile" style="text;html=1;align=center;verticalAlign=middle;resizable=0;points=[];autosize=1;fontStyle=1" vertex="1" parent="1">
          <mxGeometry x="35" y="20" width="100" height="20" as="geometry" />
        </mxCell>
        <mxCell id="3KRZKQe5Rs8XC9uwf4vS-4" value="" style="rounded=0;whiteSpace=wrap;html=1;" vertex="1" parent="1">
          <mxGeometry x="40" y="80" width="370" height="120" as="geometry" />
        </mxCell>
        <mxCell id="3KRZKQe5Rs8XC9uwf4vS-6" value="ORIGINAL" style="rounded=0;whiteSpace=wrap;html=1;" vertex="1" parent="1">
          <mxGeometry x="40" y="200" width="190" height="40" as="geometry" />
        </mxCell>
        <mxCell id="3KRZKQe5Rs8XC9uwf4vS-10" value="TRANSLATE" style="rounded=0;whiteSpace=wrap;html=1;" vertex="1" parent="1">
          <mxGeometry x="230" y="200" width="180" height="40" as="geometry" />
        </mxCell>
        <mxCell id="3KRZKQe5Rs8XC9uwf4vS-16" value="" style="rounded=0;whiteSpace=wrap;html=1;" vertex="1" parent="1">
          <mxGeometry x="50" y="280" width="350" height="40" as="geometry" />
        </mxCell>
        <mxCell id="3KRZKQe5Rs8XC9uwf4vS-17" value="" style="rounded=0;whiteSpace=wrap;html=1;" vertex="1" parent="1">
          <mxGeometry x="50" y="550" width="110" height="100" as="geometry" />
        </mxCell>
        <mxCell id="3KRZKQe5Rs8XC9uwf4vS-18" value="" style="rounded=0;whiteSpace=wrap;html=1;" vertex="1" parent="1">
          <mxGeometry x="160" y="550" width="120" height="100" as="geometry" />
        </mxCell>
        <mxCell id="3KRZKQe5Rs8XC9uwf4vS-19" value="" style="rounded=0;whiteSpace=wrap;html=1;" vertex="1" parent="1">
          <mxGeometry x="280" y="550" width="120" height="100" as="geometry" />
        </mxCell>
        <mxCell id="3KRZKQe5Rs8XC9uwf4vS-20" value="LATEST UPDATE - COMIC" style="text;html=1;align=left;verticalAlign=middle;resizable=0;points=[];autosize=1;fontSize=12;" vertex="1" parent="1">
          <mxGeometry x="50" y="260" width="160" height="20" as="geometry" />
        </mxCell>
        <mxCell id="3KRZKQe5Rs8XC9uwf4vS-21" value="" style="rounded=0;whiteSpace=wrap;html=1;" vertex="1" parent="1">
          <mxGeometry x="50" y="320" width="350" height="40" as="geometry" />
        </mxCell>
        <mxCell id="3KRZKQe5Rs8XC9uwf4vS-22" value="" style="rounded=0;whiteSpace=wrap;html=1;" vertex="1" parent="1">
          <mxGeometry x="50" y="360" width="350" height="40" as="geometry" />
        </mxCell>
        <mxCell id="3KRZKQe5Rs8XC9uwf4vS-23" value="" style="rounded=0;whiteSpace=wrap;html=1;" vertex="1" parent="1">
          <mxGeometry x="50" y="400" width="350" height="40" as="geometry" />
        </mxCell>
        <mxCell id="3KRZKQe5Rs8XC9uwf4vS-24" value="NEKOPOST.NET" style="text;html=1;align=center;verticalAlign=middle;resizable=0;points=[];autosize=1;fontSize=14;" vertex="1" parent="1">
          <mxGeometry x="165" y="50" width="120" height="20" as="geometry" />
        </mxCell>
        <mxCell id="3KRZKQe5Rs8XC9uwf4vS-26" value="" style="rounded=0;whiteSpace=wrap;html=1;" vertex="1" parent="1">
          <mxGeometry x="50" y="280" width="40" height="40" as="geometry" />
        </mxCell>
        <mxCell id="3KRZKQe5Rs8XC9uwf4vS-27" value="" style="rounded=0;whiteSpace=wrap;html=1;" vertex="1" parent="1">
          <mxGeometry x="50" y="320" width="40" height="40" as="geometry" />
        </mxCell>
        <mxCell id="3KRZKQe5Rs8XC9uwf4vS-28" value="" style="rounded=0;whiteSpace=wrap;html=1;" vertex="1" parent="1">
          <mxGeometry x="50" y="360" width="40" height="40" as="geometry" />
        </mxCell>
        <mxCell id="3KRZKQe5Rs8XC9uwf4vS-29" value="Project Name" style="text;html=1;align=left;verticalAlign=middle;resizable=0;points=[];autosize=1;fontSize=12;spacingLeft=5;" vertex="1" parent="1">
          <mxGeometry x="90" y="280" width="90" height="20" as="geometry" />
        </mxCell>
        <mxCell id="3KRZKQe5Rs8XC9uwf4vS-30" value="Ch.20 - Chapter name" style="text;html=1;align=left;verticalAlign=middle;resizable=0;points=[];autosize=1;fontSize=11;spacingLeft=5;" vertex="1" parent="1">
          <mxGeometry x="90" y="300" width="130" height="20" as="geometry" />
        </mxCell>
        <mxCell id="3KRZKQe5Rs8XC9uwf4vS-31" value="" style="ellipse;whiteSpace=wrap;html=1;aspect=fixed;fontSize=11;align=left;" vertex="1" parent="1">
          <mxGeometry x="360" y="285" width="30" height="30" as="geometry" />
        </mxCell>
        <mxCell id="3KRZKQe5Rs8XC9uwf4vS-32" value="" style="ellipse;whiteSpace=wrap;html=1;aspect=fixed;fontSize=11;align=left;" vertex="1" parent="1">
          <mxGeometry x="360" y="325" width="30" height="30" as="geometry" />
        </mxCell>
        <mxCell id="3KRZKQe5Rs8XC9uwf4vS-33" value="" style="ellipse;whiteSpace=wrap;html=1;aspect=fixed;fontSize=11;align=left;" vertex="1" parent="1">
          <mxGeometry x="360" y="365" width="30" height="30" as="geometry" />
        </mxCell>
        <mxCell id="3KRZKQe5Rs8XC9uwf4vS-34" value="Project Name" style="text;html=1;align=left;verticalAlign=middle;resizable=0;points=[];autosize=1;fontSize=12;spacingLeft=5;" vertex="1" parent="1">
          <mxGeometry x="90" y="320" width="90" height="20" as="geometry" />
        </mxCell>
        <mxCell id="3KRZKQe5Rs8XC9uwf4vS-35" value="Ch.20 - Chapter name" style="text;html=1;align=left;verticalAlign=middle;resizable=0;points=[];autosize=1;fontSize=11;spacingLeft=5;" vertex="1" parent="1">
          <mxGeometry x="90" y="340" width="130" height="20" as="geometry" />
        </mxCell>
        <mxCell id="3KRZKQe5Rs8XC9uwf4vS-36" value="Project Name" style="text;html=1;align=left;verticalAlign=middle;resizable=0;points=[];autosize=1;fontSize=12;spacingLeft=5;" vertex="1" parent="1">
          <mxGeometry x="90" y="360" width="90" height="20" as="geometry" />
        </mxCell>
        <mxCell id="3KRZKQe5Rs8XC9uwf4vS-37" value="Ch.20 - Chapter name" style="text;html=1;align=left;verticalAlign=middle;resizable=0;points=[];autosize=1;fontSize=11;spacingLeft=5;" vertex="1" parent="1">
          <mxGeometry x="90" y="380" width="130" height="20" as="geometry" />
        </mxCell>
        <mxCell id="3KRZKQe5Rs8XC9uwf4vS-38" value="" style="rounded=0;whiteSpace=wrap;html=1;" vertex="1" parent="1">
          <mxGeometry x="50" y="400" width="350" height="40" as="geometry" />
        </mxCell>
        <mxCell id="3KRZKQe5Rs8XC9uwf4vS-39" value="" style="rounded=0;whiteSpace=wrap;html=1;" vertex="1" parent="1">
          <mxGeometry x="50" y="400" width="40" height="40" as="geometry" />
        </mxCell>
        <mxCell id="3KRZKQe5Rs8XC9uwf4vS-40" value="" style="ellipse;whiteSpace=wrap;html=1;aspect=fixed;fontSize=11;align=left;" vertex="1" parent="1">
          <mxGeometry x="360" y="405" width="30" height="30" as="geometry" />
        </mxCell>
        <mxCell id="3KRZKQe5Rs8XC9uwf4vS-41" value="Project Name" style="text;html=1;align=left;verticalAlign=middle;resizable=0;points=[];autosize=1;fontSize=12;spacingLeft=5;" vertex="1" parent="1">
          <mxGeometry x="90" y="400" width="90" height="20" as="geometry" />
        </mxCell>
        <mxCell id="3KRZKQe5Rs8XC9uwf4vS-42" value="Ch.20 - Chapter name" style="text;html=1;align=left;verticalAlign=middle;resizable=0;points=[];autosize=1;fontSize=11;spacingLeft=5;" vertex="1" parent="1">
          <mxGeometry x="90" y="420" width="130" height="20" as="geometry" />
        </mxCell>
        <mxCell id="3KRZKQe5Rs8XC9uwf4vS-43" value="Remember configure in local storage" style="shape=callout;whiteSpace=wrap;html=1;perimeter=calloutPerimeter;fontSize=11;align=left;size=20;position=0.17;position2=0;" vertex="1" parent="1">
          <mxGeometry x="420" y="170" width="120" height="60" as="geometry" />
        </mxCell>
        <mxCell id="3KRZKQe5Rs8XC9uwf4vS-44" value="" style="rounded=0;whiteSpace=wrap;html=1;" vertex="1" parent="1">
          <mxGeometry x="50" y="440" width="350" height="40" as="geometry" />
        </mxCell>
        <mxCell id="3KRZKQe5Rs8XC9uwf4vS-45" value="" style="rounded=0;whiteSpace=wrap;html=1;" vertex="1" parent="1">
          <mxGeometry x="50" y="480" width="350" height="40" as="geometry" />
        </mxCell>
        <mxCell id="3KRZKQe5Rs8XC9uwf4vS-46" value="" style="rounded=0;whiteSpace=wrap;html=1;" vertex="1" parent="1">
          <mxGeometry x="50" y="440" width="40" height="40" as="geometry" />
        </mxCell>
        <mxCell id="3KRZKQe5Rs8XC9uwf4vS-47" value="" style="ellipse;whiteSpace=wrap;html=1;aspect=fixed;fontSize=11;align=left;" vertex="1" parent="1">
          <mxGeometry x="360" y="445" width="30" height="30" as="geometry" />
        </mxCell>
        <mxCell id="3KRZKQe5Rs8XC9uwf4vS-48" value="Project Name" style="text;html=1;align=left;verticalAlign=middle;resizable=0;points=[];autosize=1;fontSize=12;spacingLeft=5;" vertex="1" parent="1">
          <mxGeometry x="90" y="440" width="90" height="20" as="geometry" />
        </mxCell>
        <mxCell id="3KRZKQe5Rs8XC9uwf4vS-49" value="Ch.20 - Chapter name" style="text;html=1;align=left;verticalAlign=middle;resizable=0;points=[];autosize=1;fontSize=11;spacingLeft=5;" vertex="1" parent="1">
          <mxGeometry x="90" y="460" width="130" height="20" as="geometry" />
        </mxCell>
        <mxCell id="3KRZKQe5Rs8XC9uwf4vS-50" value="" style="rounded=0;whiteSpace=wrap;html=1;" vertex="1" parent="1">
          <mxGeometry x="50" y="480" width="350" height="40" as="geometry" />
        </mxCell>
        <mxCell id="3KRZKQe5Rs8XC9uwf4vS-51" value="" style="rounded=0;whiteSpace=wrap;html=1;" vertex="1" parent="1">
          <mxGeometry x="50" y="480" width="40" height="40" as="geometry" />
        </mxCell>
        <mxCell id="3KRZKQe5Rs8XC9uwf4vS-52" value="" style="ellipse;whiteSpace=wrap;html=1;aspect=fixed;fontSize=11;align=left;" vertex="1" parent="1">
          <mxGeometry x="360" y="485" width="30" height="30" as="geometry" />
        </mxCell>
        <mxCell id="3KRZKQe5Rs8XC9uwf4vS-53" value="Project Name" style="text;html=1;align=left;verticalAlign=middle;resizable=0;points=[];autosize=1;fontSize=12;spacingLeft=5;" vertex="1" parent="1">
          <mxGeometry x="90" y="480" width="90" height="20" as="geometry" />
        </mxCell>
        <mxCell id="3KRZKQe5Rs8XC9uwf4vS-54" value="Ch.20 - Chapter name" style="text;html=1;align=left;verticalAlign=middle;resizable=0;points=[];autosize=1;fontSize=11;spacingLeft=5;" vertex="1" parent="1">
          <mxGeometry x="90" y="500" width="130" height="20" as="geometry" />
        </mxCell>
        <mxCell id="3KRZKQe5Rs8XC9uwf4vS-58" value="LATEST UPDATE - NOVEL" style="text;html=1;align=left;verticalAlign=middle;resizable=0;points=[];autosize=1;fontSize=12;" vertex="1" parent="1">
          <mxGeometry x="50" y="690" width="160" height="20" as="geometry" />
        </mxCell>
        <mxCell id="3KRZKQe5Rs8XC9uwf4vS-59" value="" style="rounded=0;whiteSpace=wrap;html=1;" vertex="1" parent="1">
          <mxGeometry x="50" y="710" width="350" height="40" as="geometry" />
        </mxCell>
        <mxCell id="3KRZKQe5Rs8XC9uwf4vS-60" value="" style="rounded=0;whiteSpace=wrap;html=1;" vertex="1" parent="1">
          <mxGeometry x="50" y="750" width="350" height="40" as="geometry" />
        </mxCell>
        <mxCell id="3KRZKQe5Rs8XC9uwf4vS-61" value="" style="rounded=0;whiteSpace=wrap;html=1;" vertex="1" parent="1">
          <mxGeometry x="50" y="790" width="350" height="40" as="geometry" />
        </mxCell>
        <mxCell id="3KRZKQe5Rs8XC9uwf4vS-62" value="" style="rounded=0;whiteSpace=wrap;html=1;" vertex="1" parent="1">
          <mxGeometry x="50" y="830" width="350" height="40" as="geometry" />
        </mxCell>
        <mxCell id="3KRZKQe5Rs8XC9uwf4vS-63" value="" style="rounded=0;whiteSpace=wrap;html=1;" vertex="1" parent="1">
          <mxGeometry x="50" y="710" width="40" height="40" as="geometry" />
        </mxCell>
        <mxCell id="3KRZKQe5Rs8XC9uwf4vS-64" value="" style="rounded=0;whiteSpace=wrap;html=1;" vertex="1" parent="1">
          <mxGeometry x="50" y="750" width="40" height="40" as="geometry" />
        </mxCell>
        <mxCell id="3KRZKQe5Rs8XC9uwf4vS-65" value="" style="rounded=0;whiteSpace=wrap;html=1;" vertex="1" parent="1">
          <mxGeometry x="50" y="790" width="40" height="40" as="geometry" />
        </mxCell>
        <mxCell id="3KRZKQe5Rs8XC9uwf4vS-66" value="Project Name" style="text;html=1;align=left;verticalAlign=middle;resizable=0;points=[];autosize=1;fontSize=12;spacingLeft=5;" vertex="1" parent="1">
          <mxGeometry x="90" y="710" width="90" height="20" as="geometry" />
        </mxCell>
        <mxCell id="3KRZKQe5Rs8XC9uwf4vS-67" value="Ch.20 - Chapter name" style="text;html=1;align=left;verticalAlign=middle;resizable=0;points=[];autosize=1;fontSize=11;spacingLeft=5;" vertex="1" parent="1">
          <mxGeometry x="90" y="730" width="130" height="20" as="geometry" />
        </mxCell>
        <mxCell id="3KRZKQe5Rs8XC9uwf4vS-68" value="" style="ellipse;whiteSpace=wrap;html=1;aspect=fixed;fontSize=11;align=left;" vertex="1" parent="1">
          <mxGeometry x="360" y="715" width="30" height="30" as="geometry" />
        </mxCell>
        <mxCell id="3KRZKQe5Rs8XC9uwf4vS-69" value="" style="ellipse;whiteSpace=wrap;html=1;aspect=fixed;fontSize=11;align=left;" vertex="1" parent="1">
          <mxGeometry x="360" y="755" width="30" height="30" as="geometry" />
        </mxCell>
        <mxCell id="3KRZKQe5Rs8XC9uwf4vS-70" value="" style="ellipse;whiteSpace=wrap;html=1;aspect=fixed;fontSize=11;align=left;" vertex="1" parent="1">
          <mxGeometry x="360" y="795" width="30" height="30" as="geometry" />
        </mxCell>
        <mxCell id="3KRZKQe5Rs8XC9uwf4vS-71" value="Project Name" style="text;html=1;align=left;verticalAlign=middle;resizable=0;points=[];autosize=1;fontSize=12;spacingLeft=5;" vertex="1" parent="1">
          <mxGeometry x="90" y="750" width="90" height="20" as="geometry" />
        </mxCell>
        <mxCell id="3KRZKQe5Rs8XC9uwf4vS-72" value="Ch.20 - Chapter name" style="text;html=1;align=left;verticalAlign=middle;resizable=0;points=[];autosize=1;fontSize=11;spacingLeft=5;" vertex="1" parent="1">
          <mxGeometry x="90" y="770" width="130" height="20" as="geometry" />
        </mxCell>
        <mxCell id="3KRZKQe5Rs8XC9uwf4vS-73" value="Project Name" style="text;html=1;align=left;verticalAlign=middle;resizable=0;points=[];autosize=1;fontSize=12;spacingLeft=5;" vertex="1" parent="1">
          <mxGeometry x="90" y="790" width="90" height="20" as="geometry" />
        </mxCell>
        <mxCell id="3KRZKQe5Rs8XC9uwf4vS-74" value="Ch.20 - Chapter name" style="text;html=1;align=left;verticalAlign=middle;resizable=0;points=[];autosize=1;fontSize=11;spacingLeft=5;" vertex="1" parent="1">
          <mxGeometry x="90" y="810" width="130" height="20" as="geometry" />
        </mxCell>
        <mxCell id="3KRZKQe5Rs8XC9uwf4vS-75" value="" style="rounded=0;whiteSpace=wrap;html=1;" vertex="1" parent="1">
          <mxGeometry x="50" y="830" width="350" height="40" as="geometry" />
        </mxCell>
        <mxCell id="3KRZKQe5Rs8XC9uwf4vS-76" value="" style="rounded=0;whiteSpace=wrap;html=1;" vertex="1" parent="1">
          <mxGeometry x="50" y="830" width="40" height="40" as="geometry" />
        </mxCell>
        <mxCell id="3KRZKQe5Rs8XC9uwf4vS-77" value="" style="ellipse;whiteSpace=wrap;html=1;aspect=fixed;fontSize=11;align=left;" vertex="1" parent="1">
          <mxGeometry x="360" y="835" width="30" height="30" as="geometry" />
        </mxCell>
        <mxCell id="3KRZKQe5Rs8XC9uwf4vS-78" value="Project Name" style="text;html=1;align=left;verticalAlign=middle;resizable=0;points=[];autosize=1;fontSize=12;spacingLeft=5;" vertex="1" parent="1">
          <mxGeometry x="90" y="830" width="90" height="20" as="geometry" />
        </mxCell>
        <mxCell id="3KRZKQe5Rs8XC9uwf4vS-79" value="Ch.20 - Chapter name" style="text;html=1;align=left;verticalAlign=middle;resizable=0;points=[];autosize=1;fontSize=11;spacingLeft=5;" vertex="1" parent="1">
          <mxGeometry x="90" y="850" width="130" height="20" as="geometry" />
        </mxCell>
        <mxCell id="3KRZKQe5Rs8XC9uwf4vS-80" value="" style="rounded=0;whiteSpace=wrap;html=1;" vertex="1" parent="1">
          <mxGeometry x="50" y="870" width="350" height="40" as="geometry" />
        </mxCell>
        <mxCell id="3KRZKQe5Rs8XC9uwf4vS-81" value="" style="rounded=0;whiteSpace=wrap;html=1;" vertex="1" parent="1">
          <mxGeometry x="50" y="910" width="350" height="40" as="geometry" />
        </mxCell>
        <mxCell id="3KRZKQe5Rs8XC9uwf4vS-82" value="" style="rounded=0;whiteSpace=wrap;html=1;" vertex="1" parent="1">
          <mxGeometry x="50" y="870" width="40" height="40" as="geometry" />
        </mxCell>
        <mxCell id="3KRZKQe5Rs8XC9uwf4vS-83" value="" style="ellipse;whiteSpace=wrap;html=1;aspect=fixed;fontSize=11;align=left;" vertex="1" parent="1">
          <mxGeometry x="360" y="875" width="30" height="30" as="geometry" />
        </mxCell>
        <mxCell id="3KRZKQe5Rs8XC9uwf4vS-84" value="Project Name" style="text;html=1;align=left;verticalAlign=middle;resizable=0;points=[];autosize=1;fontSize=12;spacingLeft=5;" vertex="1" parent="1">
          <mxGeometry x="90" y="870" width="90" height="20" as="geometry" />
        </mxCell>
        <mxCell id="3KRZKQe5Rs8XC9uwf4vS-85" value="Ch.20 - Chapter name" style="text;html=1;align=left;verticalAlign=middle;resizable=0;points=[];autosize=1;fontSize=11;spacingLeft=5;" vertex="1" parent="1">
          <mxGeometry x="90" y="890" width="130" height="20" as="geometry" />
        </mxCell>
        <mxCell id="3KRZKQe5Rs8XC9uwf4vS-86" value="" style="rounded=0;whiteSpace=wrap;html=1;" vertex="1" parent="1">
          <mxGeometry x="50" y="910" width="350" height="40" as="geometry" />
        </mxCell>
        <mxCell id="3KRZKQe5Rs8XC9uwf4vS-87" value="" style="rounded=0;whiteSpace=wrap;html=1;" vertex="1" parent="1">
          <mxGeometry x="50" y="910" width="40" height="40" as="geometry" />
        </mxCell>
        <mxCell id="3KRZKQe5Rs8XC9uwf4vS-88" value="" style="ellipse;whiteSpace=wrap;html=1;aspect=fixed;fontSize=11;align=left;" vertex="1" parent="1">
          <mxGeometry x="360" y="915" width="30" height="30" as="geometry" />
        </mxCell>
        <mxCell id="3KRZKQe5Rs8XC9uwf4vS-89" value="Project Name" style="text;html=1;align=left;verticalAlign=middle;resizable=0;points=[];autosize=1;fontSize=12;spacingLeft=5;" vertex="1" parent="1">
          <mxGeometry x="90" y="910" width="90" height="20" as="geometry" />
        </mxCell>
        <mxCell id="3KRZKQe5Rs8XC9uwf4vS-90" value="Ch.20 - Chapter name" style="text;html=1;align=left;verticalAlign=middle;resizable=0;points=[];autosize=1;fontSize=11;spacingLeft=5;" vertex="1" parent="1">
          <mxGeometry x="90" y="930" width="130" height="20" as="geometry" />
        </mxCell>
        <mxCell id="3KRZKQe5Rs8XC9uwf4vS-91" value="New Arrival" style="text;html=1;align=left;verticalAlign=middle;resizable=0;points=[];autosize=1;fontSize=12;" vertex="1" parent="1">
          <mxGeometry x="50" y="530" width="80" height="20" as="geometry" />
        </mxCell>
        <mxCell id="3KRZKQe5Rs8XC9uwf4vS-92" value="" style="rounded=0;whiteSpace=wrap;html=1;fontSize=12;align=left;fillColor=#e1d5e7;strokeColor=#9673a6;" vertex="1" parent="1">
          <mxGeometry x="50" y="660" width="350" height="10" as="geometry" />
        </mxCell>
        <mxCell id="3KRZKQe5Rs8XC9uwf4vS-94" value="" style="rounded=0;whiteSpace=wrap;html=1;" vertex="1" parent="1">
          <mxGeometry x="50" y="980" width="110" height="100" as="geometry" />
        </mxCell>
        <mxCell id="3KRZKQe5Rs8XC9uwf4vS-95" value="" style="rounded=0;whiteSpace=wrap;html=1;" vertex="1" parent="1">
          <mxGeometry x="160" y="980" width="120" height="100" as="geometry" />
        </mxCell>
        <mxCell id="3KRZKQe5Rs8XC9uwf4vS-96" value="" style="rounded=0;whiteSpace=wrap;html=1;" vertex="1" parent="1">
          <mxGeometry x="280" y="980" width="120" height="100" as="geometry" />
        </mxCell>
        <mxCell id="3KRZKQe5Rs8XC9uwf4vS-97" value="New Arrival" style="text;html=1;align=left;verticalAlign=middle;resizable=0;points=[];autosize=1;fontSize=12;" vertex="1" parent="1">
          <mxGeometry x="50" y="960" width="80" height="20" as="geometry" />
        </mxCell>
        <mxCell id="3KRZKQe5Rs8XC9uwf4vS-99" value="&lt;h1 style=&quot;font-size: 12px&quot;&gt;&lt;span style=&quot;font-family: &amp;#34;open sans&amp;#34; , &amp;#34;arial&amp;#34; , sans-serif ; font-size: 12px ; text-align: justify ; background-color: rgb(255 , 255 , 255)&quot;&gt;Announcement:&lt;/span&gt;&lt;span style=&quot;font-family: &amp;#34;open sans&amp;#34; , &amp;#34;arial&amp;#34; , sans-serif ; font-size: 12px ; font-weight: 400 ; text-align: justify ; background-color: rgb(255 , 255 , 255)&quot;&gt; Lorem ipsum dolor sit amet, consectetur adipiscing elit. Nullam commodo egestas eros, ac rhoncus magna mollis et. Mauris elementum sapien ut mi luctus, in iaculis quam fermentum. Pellentesque quis lorem nec ante fermentum luctus. Ut semper quam a orci efficitur, in pulvinar dolor pellentesque. Nunc ut elit quis lorem facilisis ullamcorper vitae et felis. Donec nec nulla quis erat porta gravida. Etiam tempus nibh lacus, sed lobortis tellus posuere vitae. Maecenas consectetur nulla vitae hendrerit efficitur. Proin sollicitudin facilisis nisi, ac faucibus eros accumsan vitae. Morbi vehicula augue eu bibendum ultricies.&amp;nbsp;&lt;/span&gt;&lt;br style=&quot;font-size: 12px&quot;&gt;&lt;/h1&gt;" style="text;html=1;strokeColor=none;fillColor=none;spacing=5;spacingTop=-20;whiteSpace=wrap;overflow=hidden;rounded=0;fontSize=12;align=left;" vertex="1" parent="1">
          <mxGeometry x="50" y="92.5" width="350" height="95" as="geometry" />
        </mxCell>
        <mxCell id="3KRZKQe5Rs8XC9uwf4vS-100" value="" style="rounded=0;whiteSpace=wrap;html=1;fontSize=12;align=left;" vertex="1" parent="1">
          <mxGeometry x="40" y="1110" width="370" height="140" as="geometry" />
        </mxCell>
        <mxCell id="3KRZKQe5Rs8XC9uwf4vS-101" value="ABOUT NEKOPOST" style="text;html=1;align=center;verticalAlign=middle;resizable=0;points=[];autosize=1;fontSize=12;" vertex="1" parent="1">
          <mxGeometry x="40" y="1120" width="130" height="20" as="geometry" />
        </mxCell>
        <mxCell id="3KRZKQe5Rs8XC9uwf4vS-102" value="&lt;h1 style=&quot;font-size: 12px&quot;&gt;&lt;span style=&quot;font-family: &amp;#34;open sans&amp;#34; , &amp;#34;arial&amp;#34; , sans-serif ; font-size: 12px ; font-weight: 400 ; text-align: justify ; background-color: rgb(255 , 255 , 255)&quot;&gt;Lorem ipsum dolor sit amet, consectetur adipiscing elit. Nullam commodo egestas eros, ac rhoncus magna mollis et. Mauris elementum sapien ut mi luctus, in iaculis quam fermentum. Pellentesque quis lorem nec ante fermentum luctus. Ut semper quam a orci efficitur, in pulvinar dolor pellentesque. Nunc ut elit quis lorem facilisis ullamcorper vitae et felis. Donec nec nulla quis erat porta gravida. Etiam tempus nibh lacus, sed lobortis tellus posuere vitae. Maecenas consectetur nulla vitae hendrerit efficitur. Proin sollicitudin facilisis nisi, ac faucibus eros accumsan vitae. Morbi vehicula augue eu bibendum ultricies.&amp;nbsp;&lt;/span&gt;&lt;br style=&quot;font-size: 12px&quot;&gt;&lt;/h1&gt;" style="text;html=1;strokeColor=none;fillColor=none;spacing=5;spacingTop=-20;whiteSpace=wrap;overflow=hidden;rounded=0;fontSize=12;align=left;" vertex="1" parent="1">
          <mxGeometry x="45" y="1145" width="350" height="40" as="geometry" />
        </mxCell>
        <mxCell id="3KRZKQe5Rs8XC9uwf4vS-103" value="Term of use" style="text;html=1;align=left;verticalAlign=middle;resizable=0;points=[];autosize=1;fontSize=12;fontStyle=1" vertex="1" parent="1">
          <mxGeometry x="50" y="1190" width="80" height="20" as="geometry" />
        </mxCell>
        <mxCell id="3KRZKQe5Rs8XC9uwf4vS-104" value="Contact Us" style="text;html=1;align=right;verticalAlign=middle;resizable=0;points=[];autosize=1;fontSize=12;fontStyle=1" vertex="1" parent="1">
          <mxGeometry x="320" y="1190" width="80" height="20" as="geometry" />
        </mxCell>
        <mxCell id="3KRZKQe5Rs8XC9uwf4vS-105" value="Powered by CLAZ and Happy Providers since 2009" style="text;html=1;align=center;verticalAlign=middle;resizable=0;points=[];autosize=1;fontSize=12;" vertex="1" parent="1">
          <mxGeometry x="75" y="1220" width="290" height="20" as="geometry" />
        </mxCell>
      </root>
    </mxGraphModel>
  </diagram>
</mxfile>
